Coordinates
nRows=11
nColumns=24

# SIMM Motion File Header:
name Coordinates
datacolumns 24
datarows 11
otherdata 1
range 0.45067000000000002000 0.46067000000000002000
endheader
time	pelvis_tx	pelvis_ty	pelvis_tz	pelvis_tilt	pelvis_list	pelvis_rotation	hip_flexion_r	hip_adduction_r	hip_rotation_r	knee_angle_r	ankle_angle_r	subtalar_angle_r	mtp_angle_r	hip_flexion_l	hip_adduction_l	hip_rotation_l	knee_angle_l	ankle_angle_l	subtalar_angle_l	mtp_angle_l	lumbar_extension	lumbar_bending	lumbar_rotation
      0.45067000000000002000	      0.27893482265890024000	      0.80314895988330925000	     -0.30273307826940654000	     -2.17841270665757230000	     -0.33394310915822584000	     -0.08180004740316891600	     27.37702491221304200000	      0.32517688906554559000	     -1.26321099774685240000	    -20.12063996259231000000	     -2.66397446559516120000	      0.00000000000004192517	     -0.00000000000008273911	     -6.98879118386511420000	      2.49586603971381130000	     -7.65330219065108070000	     -1.66008564309999950000	      8.88873830170286540000	     -0.00000000000004383592	      0.00000000000011379954	     -2.26191426462001030000	      0.02296240944641207400	     -4.97752470888870850000
      0.45167000000000002000	      0.27991035066068615000	      0.80297389223466498000	     -0.30275503618594168000	     -2.18374512916974740000	     -0.34465318151737612000	     -0.03989722134816724900	     27.36818591512268400000	      0.31973881710941748000	     -1.30952026683374760000	    -19.75792453680547900000	     -2.66914555308314050000	      0.00000000000004212198	     -0.00000000000008361515	     -7.06241467570212930000	      2.48343893384747180000	     -7.68109199306258540000	     -1.66189732957412550000	      8.94845576133348430000	     -0.00000000000004412096	      0.00000000000011467431	     -2.24508292330661560000	      0.03351500005373722600	     -5.02348497313078820000
      0.45267000000000002000	      0.28088954745272987000	      0.80279635364225377000	     -0.30278029258886563000	     -2.18930665147502390000	     -0.35504444879434516000	      0.00328649563254360560	     27.35661974523714000000	      0.31261308646269637000	     -1.35349463095619350000	    -19.39191699506824300000	     -2.67577242724291730000	      0.00000000000004234282	     -0.00000000000008451478	     -7.13520177965992270000	      2.47100705546081830000	     -7.70786362614095030000	     -1.66538109459761170000	      9.01372007207020860000	     -0.00000000000004444100	      0.00000000000011564208	     -2.22770008601941160000	      0.04458214038542301200	     -5.07180930950990570000
      0.45367000000000002000	      0.28186874424477359000	      0.80261881504984245000	     -0.30280554899178957000	     -2.19486817378030000000	     -0.36543571607131414000	      0.04647021261325467300	     27.34505357535159200000	      0.30548735581597491000	     -1.39746899507863900000	    -19.02590945333101000000	     -2.68239930140269460000	      0.00000000000004256366	     -0.00000000000008541442	     -7.20798888361771620000	      2.45857517707416530000	     -7.73463525921931530000	     -1.66886485962109840000	      9.07898438280693300000	     -0.00000000000004476105	      0.00000000000011660985	     -2.21031724873220710000	      0.05564928071710888900	     -5.12013364588902320000
      0.45467000000000002000	      0.28285087529049807000	      0.80243961057069724000	     -0.30283341505228406000	     -2.20040454308707910000	     -0.37553887244145789000	      0.09067165681130176500	     27.33111924879737500000	      0.29699782260562041000	     -1.43934284009445350000	    -18.65747875820059300000	     -2.69017944192503710000	      0.00000000000004277068	     -0.00000000000008630213	     -7.28042879626449220000	      2.44617742318327020000	     -7.76057688687742430000	     -1.67344808964013340000	      9.14784605615688660000	     -0.00000000000004507319	      0.00000000000011755775	     -2.19275045104990340000	      0.06707903914872959100	     -5.17031718384399500000
      0.45567000000000002000	      0.28383398442078284000	      0.80225985079597406000	     -0.30286215099863545000	     -2.20593252806102580000	     -0.38554599184265992000	      0.13521234341512739000	     27.31639553668693000000	      0.28805368854072166000	     -1.48051651207472430000	    -18.28824034527245200000	     -2.69834400456823520000	      0.00000000000004297308	     -0.00000000000008718587	     -7.35275297847426220000	      2.43379104412429510000	     -7.78624184606211500000	     -1.67839780799101730000	      9.21790685037791670000	     -0.00000000000004538271	      0.00000000000011849902	     -2.17512233323590020000	      0.07862967028032852300	     -5.22112045565758360000
      0.45667000000000002000	      0.28481810858400802000	      0.80207953046991720000	     -0.30289176859263772000	     -2.21145335876542590000	     -0.39540754829368158000	      0.18008847249636584000	     27.30087718130483100000	      0.27860140095292268000	     -1.52082644966028280000	    -17.91827218990173900000	     -2.70688665386314180000	      0.00000000000004317396	     -0.00000000000008807041	     -7.42498046629135720000	      2.42146244563539480000	     -7.81164028994756610000	     -1.68364030305102830000	      9.28804780491616460000	     -0.00000000000004569590	      0.00000000000011944939	     -2.15743415832464920000	      0.09025256998231465100	     -5.27254692950230460000
      0.45767000000000002000	      0.28580527784605453000	      0.80189752848985940000	     -0.30292403112959282000	     -2.21695272666118640000	     -0.40483241589416280000	      0.22597092900984084000	     27.28297489610775300000	      0.26762465279642594000	     -1.55854518406170970000	    -17.54611480720332000000	     -2.71656356311317190000	      0.00000000000004337025	     -0.00000000000008895734	     -7.49691787093042890000	      2.40930718885671970000	     -7.83623918793530020000	     -1.68976112823841770000	      9.35842924040606410000	     -0.00000000000004602014	      0.00000000000012042707	     -2.13956581212165540000	      0.10209227539546195000	     -5.32584300944041900000
      0.45867000000000002000	      0.28679244710810109000	      0.80171552650980149000	     -0.30295629366654786000	     -2.22245209455694640000	     -0.41425728349464408000	      0.27185338552331584000	     27.26507261091067500000	      0.25664790463992915000	     -1.59626391846313640000	    -17.17395742450490200000	     -2.72624047236320210000	      0.00000000000004356654	     -0.00000000000008984427	     -7.56885527556950160000	      2.39715193207804460000	     -7.86083808592303420000	     -1.69588195342580720000	      9.42881067589596360000	     -0.00000000000004634438	      0.00000000000012140474	     -2.12169746591866200000	      0.11393198080860924000	     -5.37913908937853420000
      0.45967000000000002000	      0.28778260516756787000	      0.80153180037282568000	     -0.30299103152647378000	     -2.22803126364032390000	     -0.42311807312939409000	      0.31862817210966621000	     27.24503663358710900000	      0.24408075277558211000	     -1.63102267220944360000	    -16.80005136916451000000	     -2.73690278526276030000	      0.00000000000004376655	     -0.00000000000009069486	     -7.64047324505210850000	      2.38530402746499840000	     -7.88475908565836470000	     -1.70261621455299020000	      9.49561825814419260000	     -0.00000000000004663027	      0.00000000000012227314	     -2.10355043081257250000	      0.12582765183725628000	     -5.43416318552774240000
      0.46067000000000002000	      0.28877375949284145000	      0.80134749951687723000	     -0.30302659449405656000	     -2.23363703311957410000	     -0.43179083677556773000	      0.36570040205364074000	     27.22428942555471200000	      0.23098346634195344000	     -1.66479476573738090000	    -16.42556242294346400000	     -2.74789356604549350000	      0.00000000000004396780	     -0.00000000000009153333	     -7.71198473614922710000	      2.37355857357382850000	     -7.90845411930956120000	     -1.70955495432677050000	      9.56123455597853500000	     -0.00000000000004690339	      0.00000000000012310511	     -2.08531049940545140000	      0.13774197807106980000	     -5.48976328708064720000
